<svg xmlns="http://www.w3.org/2000/svg" xmlns:xlink="http://www.w3.org/1999/xlink" width="500" zoomAndPan="magnify" viewBox="0 0 375 374.999991" height="500" preserveAspectRatio="xMidYMid meet" version="1.0"><defs><g/></defs><g fill="#000000" fill-opacity="1"><g transform="translate(118.788416, 193.001875)"><g><path d="M 29.9375 -1 L 30.4375 -1 L 30.4375 0 L 16.171875 0 L 16.171875 -1 L 16.671875 -1 C 17.210938 -1 17.679688 -1.195312 18.078125 -1.59375 C 18.484375 -2 18.835938 -2.46875 19.140625 -3 C 19.441406 -3.539062 19.65625 -4.128906 19.78125 -4.765625 C 19.914062 -5.398438 19.984375 -5.988281 19.984375 -6.53125 L 19.984375 -62.578125 L 8.34375 -62.578125 C 7.269531 -62.578125 6.328125 -62.34375 5.515625 -61.875 C 4.710938 -61.40625 4.046875 -60.816406 3.515625 -60.109375 C 2.984375 -59.410156 2.582031 -58.644531 2.3125 -57.8125 C 2.039062 -56.976562 1.90625 -56.15625 1.90625 -55.34375 L 0.90625 -55.34375 L 0.90625 -66.296875 L 46 -66.296875 L 46 -55.34375 L 45 -55.34375 C 45 -56.15625 44.863281 -56.976562 44.59375 -57.8125 C 44.332031 -58.644531 43.929688 -59.410156 43.390625 -60.109375 C 42.859375 -60.816406 42.191406 -61.40625 41.390625 -61.875 C 40.585938 -62.34375 39.648438 -62.578125 38.578125 -62.578125 L 26.71875 -62.578125 L 26.71875 -6.53125 C 26.71875 -5.988281 26.785156 -5.398438 26.921875 -4.765625 C 27.054688 -4.128906 27.273438 -3.539062 27.578125 -3 C 27.878906 -2.46875 28.210938 -2 28.578125 -1.59375 C 28.941406 -1.195312 29.394531 -1 29.9375 -1 Z M 29.9375 -1 "/></g></g></g><g fill="#000000" fill-opacity="1"><g transform="translate(178.150673, 193.001875)"><g><path d="M 58.5625 -1 L 59.0625 -1 C 59.53125 -1 59.960938 -1.195312 60.359375 -1.59375 C 60.765625 -2 61.117188 -2.46875 61.421875 -3 C 61.722656 -3.539062 61.941406 -4.128906 62.078125 -4.765625 C 62.210938 -5.398438 62.28125 -5.988281 62.28125 -6.53125 L 62.28125 -59.375 L 36.359375 1.109375 L 11.75 -56.25 L 11.75 -6.53125 C 11.75 -5.988281 11.816406 -5.398438 11.953125 -4.765625 C 12.085938 -4.128906 12.304688 -3.539062 12.609375 -3 C 12.910156 -2.46875 13.257812 -2 13.65625 -1.59375 C 14.0625 -1.195312 14.53125 -1 15.0625 -1 L 15.5625 -1 L 15.5625 0 L 4.625 0 L 4.625 -1 L 5.125 -1 C 5.59375 -1 6.023438 -1.195312 6.421875 -1.59375 C 6.828125 -2 7.160156 -2.46875 7.421875 -3 C 7.691406 -3.539062 7.894531 -4.128906 8.03125 -4.765625 C 8.164062 -5.398438 8.234375 -5.988281 8.234375 -6.53125 L 8.234375 -60.078125 C 8.234375 -60.546875 8.164062 -61.078125 8.03125 -61.671875 C 7.894531 -62.273438 7.691406 -62.84375 7.421875 -63.375 C 7.160156 -63.914062 6.828125 -64.367188 6.421875 -64.734375 C 6.023438 -65.109375 5.59375 -65.296875 5.125 -65.296875 L 4.625 -65.296875 L 4.625 -66.296875 L 14.859375 -66.296875 L 38.171875 -11.34375 L 61.484375 -66.296875 L 72.828125 -66.296875 L 72.828125 -65.296875 L 72.328125 -65.296875 C 71.785156 -65.296875 71.3125 -65.109375 70.90625 -64.734375 C 70.507812 -64.367188 70.160156 -63.914062 69.859375 -63.375 C 69.554688 -62.84375 69.335938 -62.273438 69.203125 -61.671875 C 69.078125 -61.078125 69.015625 -60.546875 69.015625 -60.078125 L 69.015625 -6.53125 C 69.015625 -5.988281 69.078125 -5.398438 69.203125 -4.765625 C 69.335938 -4.128906 69.554688 -3.539062 69.859375 -3 C 70.160156 -2.46875 70.507812 -2 70.90625 -1.59375 C 71.3125 -1.195312 71.785156 -1 72.328125 -1 L 72.828125 -1 L 72.828125 0 L 58.5625 0 Z M 58.5625 -1 "/></g></g></g><g fill="#000000" fill-opacity="1"><g transform="translate(102.528465, 233.606601)"><g><path d="M 8.640625 -6.375 L 8.1875 -6.375 C 8.164062 -6.6875 8.113281 -6.945312 8.03125 -7.15625 C 7.957031 -7.375 7.84375 -7.539062 7.6875 -7.65625 C 7.539062 -7.78125 7.351562 -7.867188 7.125 -7.921875 C 6.894531 -7.972656 6.625 -8 6.3125 -8 C 6.039062 -8 5.820312 -7.992188 5.65625 -7.984375 C 5.488281 -7.972656 5.359375 -7.953125 5.265625 -7.921875 C 5.179688 -7.890625 5.128906 -7.851562 5.109375 -7.8125 C 5.085938 -7.769531 5.078125 -7.71875 5.078125 -7.65625 L 5.078125 -1.765625 C 5.078125 -1.535156 5.09375 -1.332031 5.125 -1.15625 C 5.15625 -0.988281 5.21875 -0.851562 5.3125 -0.75 C 5.414062 -0.644531 5.5625 -0.5625 5.75 -0.5 C 5.9375 -0.445312 6.179688 -0.421875 6.484375 -0.421875 L 6.484375 0 L 2.328125 0 L 2.328125 -0.421875 C 2.640625 -0.421875 2.890625 -0.445312 3.078125 -0.5 C 3.265625 -0.5625 3.40625 -0.644531 3.5 -0.75 C 3.601562 -0.851562 3.671875 -0.988281 3.703125 -1.15625 C 3.742188 -1.332031 3.765625 -1.535156 3.765625 -1.765625 L 3.765625 -7.65625 C 3.765625 -7.71875 3.75 -7.769531 3.71875 -7.8125 C 3.695312 -7.851562 3.644531 -7.890625 3.5625 -7.921875 C 3.488281 -7.953125 3.378906 -7.972656 3.234375 -7.984375 C 3.097656 -7.992188 2.914062 -8 2.6875 -8 C 2.394531 -8 2.125 -7.988281 1.875 -7.96875 C 1.632812 -7.945312 1.425781 -7.878906 1.25 -7.765625 C 1.070312 -7.660156 0.925781 -7.5 0.8125 -7.28125 C 0.707031 -7.0625 0.648438 -6.757812 0.640625 -6.375 L 0.234375 -6.375 L 0.234375 -8.46875 L 8.53125 -8.46875 Z M 8.640625 -6.375 "/></g></g></g><g fill="#000000" fill-opacity="1"><g transform="translate(115.755234, 233.606601)"><g><path d="M 7.9375 -3.40625 C 7.9375 -2.832031 7.878906 -2.320312 7.765625 -1.875 C 7.648438 -1.4375 7.46875 -1.070312 7.21875 -0.78125 C 6.96875 -0.488281 6.640625 -0.265625 6.234375 -0.109375 C 5.828125 0.0351562 5.34375 0.109375 4.78125 0.109375 C 4.226562 0.109375 3.75 0.0546875 3.34375 -0.046875 C 2.945312 -0.148438 2.613281 -0.328125 2.34375 -0.578125 C 2.070312 -0.828125 1.867188 -1.148438 1.734375 -1.546875 C 1.609375 -1.941406 1.546875 -2.425781 1.546875 -3 L 1.546875 -5.90625 C 1.546875 -6.445312 1.53125 -6.863281 1.5 -7.15625 C 1.476562 -7.445312 1.40625 -7.664062 1.28125 -7.8125 C 1.1875 -7.90625 1.0625 -7.96875 0.90625 -8 C 0.757812 -8.03125 0.5625 -8.046875 0.3125 -8.046875 L 0.3125 -8.46875 L 4.0625 -8.46875 L 4.0625 -8.046875 C 3.820312 -8.046875 3.625 -8.03125 3.46875 -8 C 3.3125 -7.976562 3.191406 -7.90625 3.109375 -7.78125 C 3.003906 -7.65625 2.9375 -7.445312 2.90625 -7.15625 C 2.875 -6.863281 2.859375 -6.445312 2.859375 -5.90625 L 2.859375 -2.921875 C 2.859375 -2.546875 2.894531 -2.210938 2.96875 -1.921875 C 3.050781 -1.628906 3.179688 -1.378906 3.359375 -1.171875 C 3.535156 -0.972656 3.765625 -0.820312 4.046875 -0.71875 C 4.328125 -0.625 4.671875 -0.578125 5.078125 -0.578125 C 5.816406 -0.578125 6.367188 -0.78125 6.734375 -1.1875 C 7.097656 -1.59375 7.28125 -2.191406 7.28125 -2.984375 L 7.28125 -5.625 C 7.28125 -6.28125 7.253906 -6.773438 7.203125 -7.109375 C 7.148438 -7.453125 7.054688 -7.691406 6.921875 -7.828125 C 6.816406 -7.921875 6.6875 -7.976562 6.53125 -8 C 6.375 -8.03125 6.1875 -8.046875 5.96875 -8.046875 L 5.96875 -8.46875 L 9.15625 -8.46875 L 9.15625 -8.046875 C 8.914062 -8.046875 8.71875 -8.023438 8.5625 -7.984375 C 8.414062 -7.953125 8.300781 -7.875 8.21875 -7.75 C 8.101562 -7.601562 8.023438 -7.363281 7.984375 -7.03125 C 7.953125 -6.707031 7.9375 -6.238281 7.9375 -5.625 Z M 7.9375 -3.40625 "/></g></g></g><g fill="#000000" fill-opacity="1"><g transform="translate(129.619553, 233.606601)"><g><path d="M 7.59375 0 L 0.5 0 L 0.5 -0.421875 C 0.75 -0.421875 0.953125 -0.4375 1.109375 -0.46875 C 1.273438 -0.507812 1.398438 -0.570312 1.484375 -0.65625 C 1.566406 -0.75 1.625 -0.875 1.65625 -1.03125 C 1.6875 -1.195312 1.703125 -1.410156 1.703125 -1.671875 L 1.703125 -6.796875 C 1.703125 -7.054688 1.6875 -7.265625 1.65625 -7.421875 C 1.632812 -7.578125 1.582031 -7.703125 1.5 -7.796875 C 1.425781 -7.890625 1.316406 -7.953125 1.171875 -7.984375 C 1.023438 -8.015625 0.835938 -8.035156 0.609375 -8.046875 L 0.609375 -8.46875 L 3.953125 -8.46875 L 3.953125 -8.046875 C 3.710938 -8.046875 3.519531 -8.023438 3.375 -7.984375 C 3.238281 -7.953125 3.128906 -7.882812 3.046875 -7.78125 C 2.972656 -7.6875 2.921875 -7.554688 2.890625 -7.390625 C 2.867188 -7.222656 2.859375 -7 2.859375 -6.71875 L 2.859375 -1.984375 C 2.859375 -1.671875 2.890625 -1.414062 2.953125 -1.21875 C 3.015625 -1.03125 3.117188 -0.878906 3.265625 -0.765625 C 3.421875 -0.660156 3.625 -0.585938 3.875 -0.546875 C 4.125 -0.515625 4.4375 -0.5 4.8125 -0.5 C 5.226562 -0.5 5.578125 -0.519531 5.859375 -0.5625 C 6.148438 -0.613281 6.394531 -0.695312 6.59375 -0.8125 C 6.789062 -0.9375 6.945312 -1.109375 7.0625 -1.328125 C 7.175781 -1.546875 7.269531 -1.828125 7.34375 -2.171875 L 7.765625 -2.171875 Z M 7.59375 0 "/></g></g></g><g fill="#000000" fill-opacity="1"><g transform="translate(142.010914, 233.606601)"><g><path d="M 2.859375 -4.65625 C 3.253906 -4.65625 3.582031 -4.675781 3.84375 -4.71875 C 4.113281 -4.769531 4.328125 -4.847656 4.484375 -4.953125 C 4.648438 -5.054688 4.765625 -5.1875 4.828125 -5.34375 C 4.898438 -5.507812 4.9375 -5.703125 4.9375 -5.921875 L 5.328125 -5.921875 L 5.328125 -2.921875 L 4.9375 -2.921875 C 4.9375 -3.140625 4.90625 -3.328125 4.84375 -3.484375 C 4.78125 -3.648438 4.671875 -3.785156 4.515625 -3.890625 C 4.359375 -3.992188 4.144531 -4.070312 3.875 -4.125 C 3.601562 -4.1875 3.265625 -4.21875 2.859375 -4.21875 L 2.859375 -1.734375 C 2.859375 -1.484375 2.882812 -1.28125 2.9375 -1.125 C 3 -0.96875 3.101562 -0.835938 3.25 -0.734375 C 3.394531 -0.640625 3.582031 -0.570312 3.8125 -0.53125 C 4.050781 -0.488281 4.34375 -0.46875 4.6875 -0.46875 C 5.070312 -0.46875 5.398438 -0.492188 5.671875 -0.546875 C 5.941406 -0.609375 6.171875 -0.703125 6.359375 -0.828125 C 6.546875 -0.960938 6.691406 -1.140625 6.796875 -1.359375 C 6.910156 -1.578125 7.003906 -1.847656 7.078125 -2.171875 L 7.484375 -2.171875 L 7.328125 0 L 0.5 0 L 0.5 -0.421875 C 0.75 -0.421875 0.953125 -0.4375 1.109375 -0.46875 C 1.273438 -0.507812 1.398438 -0.570312 1.484375 -0.65625 C 1.566406 -0.75 1.625 -0.875 1.65625 -1.03125 C 1.6875 -1.195312 1.703125 -1.410156 1.703125 -1.671875 L 1.703125 -6.796875 C 1.703125 -7.054688 1.6875 -7.265625 1.65625 -7.421875 C 1.632812 -7.578125 1.582031 -7.703125 1.5 -7.796875 C 1.425781 -7.890625 1.316406 -7.953125 1.171875 -7.984375 C 1.023438 -8.015625 0.835938 -8.035156 0.609375 -8.046875 L 0.609375 -8.46875 L 6.96875 -8.46875 L 7.0625 -6.53125 L 6.671875 -6.53125 C 6.628906 -6.820312 6.554688 -7.0625 6.453125 -7.25 C 6.359375 -7.4375 6.222656 -7.582031 6.046875 -7.6875 C 5.878906 -7.800781 5.660156 -7.878906 5.390625 -7.921875 C 5.128906 -7.972656 4.8125 -8 4.4375 -8 L 3.046875 -8 C 2.921875 -8 2.859375 -7.9375 2.859375 -7.8125 Z M 2.859375 -4.65625 "/></g></g></g><g fill="#000000" fill-opacity="1"><g transform="translate(154.391278, 233.606601)"><g><path d="M 4.65625 -1.6875 L 6.59375 -6.453125 C 6.707031 -6.722656 6.785156 -6.9375 6.828125 -7.09375 C 6.867188 -7.25 6.890625 -7.390625 6.890625 -7.515625 C 6.890625 -7.710938 6.828125 -7.847656 6.703125 -7.921875 C 6.585938 -8.003906 6.363281 -8.046875 6.03125 -8.046875 L 6.03125 -8.46875 L 8.71875 -8.46875 L 8.71875 -8.046875 C 8.539062 -8.023438 8.390625 -7.992188 8.265625 -7.953125 C 8.148438 -7.921875 8.046875 -7.875 7.953125 -7.8125 C 7.867188 -7.75 7.789062 -7.660156 7.71875 -7.546875 C 7.644531 -7.441406 7.578125 -7.3125 7.515625 -7.15625 L 4.53125 0.109375 L 4.140625 0.109375 L 1.3125 -6.75 C 1.21875 -6.96875 1.125 -7.15625 1.03125 -7.3125 C 0.9375 -7.476562 0.832031 -7.609375 0.71875 -7.703125 C 0.613281 -7.804688 0.488281 -7.882812 0.34375 -7.9375 C 0.207031 -7.988281 0.046875 -8.023438 -0.140625 -8.046875 L -0.140625 -8.46875 L 3.4375 -8.46875 L 3.4375 -8.046875 C 3.238281 -8.046875 3.070312 -8.035156 2.9375 -8.015625 C 2.8125 -7.992188 2.710938 -7.960938 2.640625 -7.921875 C 2.566406 -7.878906 2.515625 -7.828125 2.484375 -7.765625 C 2.453125 -7.710938 2.4375 -7.648438 2.4375 -7.578125 C 2.4375 -7.472656 2.453125 -7.351562 2.484375 -7.21875 C 2.523438 -7.082031 2.597656 -6.890625 2.703125 -6.640625 Z M 4.65625 -1.6875 "/></g></g></g><g fill="#000000" fill-opacity="1"><g transform="translate(167.409195, 233.606601)"><g><path d="M 5.375 -3.0625 L 2.4375 -3.0625 C 2.3125 -2.769531 2.203125 -2.503906 2.109375 -2.265625 C 2.023438 -2.035156 1.953125 -1.835938 1.890625 -1.671875 C 1.835938 -1.503906 1.800781 -1.359375 1.78125 -1.234375 C 1.757812 -1.117188 1.75 -1.023438 1.75 -0.953125 C 1.75 -0.753906 1.8125 -0.613281 1.9375 -0.53125 C 2.070312 -0.457031 2.296875 -0.421875 2.609375 -0.421875 L 2.609375 0 L -0.0625 0 L -0.0625 -0.421875 C 0.101562 -0.441406 0.242188 -0.46875 0.359375 -0.5 C 0.484375 -0.539062 0.59375 -0.59375 0.6875 -0.65625 C 0.78125 -0.726562 0.859375 -0.816406 0.921875 -0.921875 C 0.992188 -1.023438 1.066406 -1.15625 1.140625 -1.3125 L 4 -8.46875 L 4.46875 -8.46875 L 6.96875 -2.265625 C 7.132812 -1.859375 7.28125 -1.53125 7.40625 -1.28125 C 7.53125 -1.03125 7.648438 -0.84375 7.765625 -0.71875 C 7.878906 -0.59375 8.003906 -0.507812 8.140625 -0.46875 C 8.273438 -0.4375 8.441406 -0.421875 8.640625 -0.421875 L 8.640625 0 L 5.046875 0 L 5.046875 -0.421875 C 5.429688 -0.421875 5.695312 -0.457031 5.84375 -0.53125 C 6 -0.613281 6.078125 -0.738281 6.078125 -0.90625 C 6.078125 -0.976562 6.070312 -1.046875 6.0625 -1.109375 C 6.050781 -1.171875 6.035156 -1.238281 6.015625 -1.3125 C 6.003906 -1.382812 5.976562 -1.460938 5.9375 -1.546875 C 5.90625 -1.640625 5.863281 -1.75 5.8125 -1.875 Z M 2.65625 -3.625 L 5.15625 -3.625 L 3.9375 -6.859375 Z M 2.65625 -3.625 "/></g></g></g><g fill="#000000" fill-opacity="1"><g transform="translate(180.295207, 233.606601)"><g><path d="M 2.859375 -2.078125 C 2.859375 -1.710938 2.875 -1.421875 2.90625 -1.203125 C 2.9375 -0.992188 2.992188 -0.828125 3.078125 -0.703125 C 3.160156 -0.585938 3.28125 -0.507812 3.4375 -0.46875 C 3.59375 -0.4375 3.800781 -0.421875 4.0625 -0.421875 L 4.0625 0 L 0.5 0 L 0.5 -0.421875 C 0.75 -0.421875 0.953125 -0.441406 1.109375 -0.484375 C 1.273438 -0.523438 1.398438 -0.597656 1.484375 -0.703125 C 1.566406 -0.816406 1.625 -0.972656 1.65625 -1.171875 C 1.6875 -1.378906 1.703125 -1.65625 1.703125 -2 L 1.703125 -6.46875 C 1.703125 -6.78125 1.6875 -7.035156 1.65625 -7.234375 C 1.632812 -7.429688 1.582031 -7.585938 1.5 -7.703125 C 1.425781 -7.828125 1.316406 -7.910156 1.171875 -7.953125 C 1.023438 -8.003906 0.835938 -8.035156 0.609375 -8.046875 L 0.609375 -8.46875 L 3.953125 -8.46875 L 3.953125 -8.046875 C 3.710938 -8.046875 3.519531 -8.019531 3.375 -7.96875 C 3.238281 -7.914062 3.128906 -7.828125 3.046875 -7.703125 C 2.972656 -7.585938 2.921875 -7.421875 2.890625 -7.203125 C 2.867188 -6.992188 2.859375 -6.722656 2.859375 -6.390625 Z M 2.859375 -2.078125 "/></g></g></g><g fill="#000000" fill-opacity="1"><g transform="translate(189.256995, 233.606601)"><g><path d="M 0.640625 -2.578125 L 1.046875 -2.578125 C 1.097656 -2.253906 1.191406 -1.957031 1.328125 -1.6875 C 1.472656 -1.425781 1.65625 -1.203125 1.875 -1.015625 C 2.09375 -0.835938 2.34375 -0.695312 2.625 -0.59375 C 2.90625 -0.5 3.210938 -0.453125 3.546875 -0.453125 C 4.085938 -0.453125 4.515625 -0.578125 4.828125 -0.828125 C 5.140625 -1.085938 5.296875 -1.4375 5.296875 -1.875 C 5.296875 -2.0625 5.265625 -2.234375 5.203125 -2.390625 C 5.140625 -2.546875 5.035156 -2.691406 4.890625 -2.828125 C 4.742188 -2.972656 4.546875 -3.113281 4.296875 -3.25 C 4.054688 -3.394531 3.75 -3.546875 3.375 -3.703125 C 2.914062 -3.898438 2.53125 -4.085938 2.21875 -4.265625 C 1.914062 -4.453125 1.671875 -4.644531 1.484375 -4.84375 C 1.304688 -5.039062 1.175781 -5.25 1.09375 -5.46875 C 1.019531 -5.695312 0.984375 -5.957031 0.984375 -6.25 C 0.984375 -6.582031 1.046875 -6.890625 1.171875 -7.171875 C 1.296875 -7.460938 1.46875 -7.710938 1.6875 -7.921875 C 1.90625 -8.128906 2.164062 -8.289062 2.46875 -8.40625 C 2.769531 -8.519531 3.097656 -8.578125 3.453125 -8.578125 C 3.773438 -8.578125 4.078125 -8.523438 4.359375 -8.421875 C 4.640625 -8.316406 4.921875 -8.15625 5.203125 -7.9375 L 5.484375 -8.421875 L 5.734375 -8.421875 L 5.859375 -6.234375 L 5.453125 -6.234375 C 5.273438 -6.835938 5.019531 -7.285156 4.6875 -7.578125 C 4.351562 -7.867188 3.953125 -8.015625 3.484375 -8.015625 C 3.035156 -8.015625 2.679688 -7.90625 2.421875 -7.6875 C 2.160156 -7.46875 2.03125 -7.171875 2.03125 -6.796875 C 2.03125 -6.617188 2.054688 -6.457031 2.109375 -6.3125 C 2.171875 -6.175781 2.265625 -6.039062 2.390625 -5.90625 C 2.523438 -5.78125 2.695312 -5.648438 2.90625 -5.515625 C 3.125 -5.390625 3.390625 -5.257812 3.703125 -5.125 C 4.242188 -4.882812 4.691406 -4.660156 5.046875 -4.453125 C 5.410156 -4.242188 5.695312 -4.035156 5.90625 -3.828125 C 6.125 -3.617188 6.273438 -3.394531 6.359375 -3.15625 C 6.453125 -2.925781 6.5 -2.671875 6.5 -2.390625 C 6.5 -2.023438 6.425781 -1.6875 6.28125 -1.375 C 6.132812 -1.0625 5.925781 -0.796875 5.65625 -0.578125 C 5.394531 -0.359375 5.082031 -0.1875 4.71875 -0.0625 C 4.351562 0.0507812 3.953125 0.109375 3.515625 0.109375 C 3.085938 0.109375 2.707031 0.0507812 2.375 -0.0625 C 2.039062 -0.175781 1.703125 -0.375 1.359375 -0.65625 L 1.0625 -0.125 L 0.796875 -0.125 Z M 0.640625 -2.578125 "/></g></g></g><g fill="#000000" fill-opacity="1"><g transform="translate(200.747, 233.606601)"><g><path d="M 7.9375 -3.40625 C 7.9375 -2.832031 7.878906 -2.320312 7.765625 -1.875 C 7.648438 -1.4375 7.46875 -1.070312 7.21875 -0.78125 C 6.96875 -0.488281 6.640625 -0.265625 6.234375 -0.109375 C 5.828125 0.0351562 5.34375 0.109375 4.78125 0.109375 C 4.226562 0.109375 3.75 0.0546875 3.34375 -0.046875 C 2.945312 -0.148438 2.613281 -0.328125 2.34375 -0.578125 C 2.070312 -0.828125 1.867188 -1.148438 1.734375 -1.546875 C 1.609375 -1.941406 1.546875 -2.425781 1.546875 -3 L 1.546875 -5.90625 C 1.546875 -6.445312 1.53125 -6.863281 1.5 -7.15625 C 1.476562 -7.445312 1.40625 -7.664062 1.28125 -7.8125 C 1.1875 -7.90625 1.0625 -7.96875 0.90625 -8 C 0.757812 -8.03125 0.5625 -8.046875 0.3125 -8.046875 L 0.3125 -8.46875 L 4.0625 -8.46875 L 4.0625 -8.046875 C 3.820312 -8.046875 3.625 -8.03125 3.46875 -8 C 3.3125 -7.976562 3.191406 -7.90625 3.109375 -7.78125 C 3.003906 -7.65625 2.9375 -7.445312 2.90625 -7.15625 C 2.875 -6.863281 2.859375 -6.445312 2.859375 -5.90625 L 2.859375 -2.921875 C 2.859375 -2.546875 2.894531 -2.210938 2.96875 -1.921875 C 3.050781 -1.628906 3.179688 -1.378906 3.359375 -1.171875 C 3.535156 -0.972656 3.765625 -0.820312 4.046875 -0.71875 C 4.328125 -0.625 4.671875 -0.578125 5.078125 -0.578125 C 5.816406 -0.578125 6.367188 -0.78125 6.734375 -1.1875 C 7.097656 -1.59375 7.28125 -2.191406 7.28125 -2.984375 L 7.28125 -5.625 C 7.28125 -6.28125 7.253906 -6.773438 7.203125 -7.109375 C 7.148438 -7.453125 7.054688 -7.691406 6.921875 -7.828125 C 6.816406 -7.921875 6.6875 -7.976562 6.53125 -8 C 6.375 -8.03125 6.1875 -8.046875 5.96875 -8.046875 L 5.96875 -8.46875 L 9.15625 -8.46875 L 9.15625 -8.046875 C 8.914062 -8.046875 8.71875 -8.023438 8.5625 -7.984375 C 8.414062 -7.953125 8.300781 -7.875 8.21875 -7.75 C 8.101562 -7.601562 8.023438 -7.363281 7.984375 -7.03125 C 7.953125 -6.707031 7.9375 -6.238281 7.9375 -5.625 Z M 7.9375 -3.40625 "/></g></g></g><g fill="#000000" fill-opacity="1"><g transform="translate(214.611322, 233.606601)"><g><path d="M 7.9375 -3.40625 C 7.9375 -2.832031 7.878906 -2.320312 7.765625 -1.875 C 7.648438 -1.4375 7.46875 -1.070312 7.21875 -0.78125 C 6.96875 -0.488281 6.640625 -0.265625 6.234375 -0.109375 C 5.828125 0.0351562 5.34375 0.109375 4.78125 0.109375 C 4.226562 0.109375 3.75 0.0546875 3.34375 -0.046875 C 2.945312 -0.148438 2.613281 -0.328125 2.34375 -0.578125 C 2.070312 -0.828125 1.867188 -1.148438 1.734375 -1.546875 C 1.609375 -1.941406 1.546875 -2.425781 1.546875 -3 L 1.546875 -5.90625 C 1.546875 -6.445312 1.53125 -6.863281 1.5 -7.15625 C 1.476562 -7.445312 1.40625 -7.664062 1.28125 -7.8125 C 1.1875 -7.90625 1.0625 -7.96875 0.90625 -8 C 0.757812 -8.03125 0.5625 -8.046875 0.3125 -8.046875 L 0.3125 -8.46875 L 4.0625 -8.46875 L 4.0625 -8.046875 C 3.820312 -8.046875 3.625 -8.03125 3.46875 -8 C 3.3125 -7.976562 3.191406 -7.90625 3.109375 -7.78125 C 3.003906 -7.65625 2.9375 -7.445312 2.90625 -7.15625 C 2.875 -6.863281 2.859375 -6.445312 2.859375 -5.90625 L 2.859375 -2.921875 C 2.859375 -2.546875 2.894531 -2.210938 2.96875 -1.921875 C 3.050781 -1.628906 3.179688 -1.378906 3.359375 -1.171875 C 3.535156 -0.972656 3.765625 -0.820312 4.046875 -0.71875 C 4.328125 -0.625 4.671875 -0.578125 5.078125 -0.578125 C 5.816406 -0.578125 6.367188 -0.78125 6.734375 -1.1875 C 7.097656 -1.59375 7.28125 -2.191406 7.28125 -2.984375 L 7.28125 -5.625 C 7.28125 -6.28125 7.253906 -6.773438 7.203125 -7.109375 C 7.148438 -7.453125 7.054688 -7.691406 6.921875 -7.828125 C 6.816406 -7.921875 6.6875 -7.976562 6.53125 -8 C 6.375 -8.03125 6.1875 -8.046875 5.96875 -8.046875 L 5.96875 -8.46875 L 9.15625 -8.46875 L 9.15625 -8.046875 C 8.914062 -8.046875 8.71875 -8.023438 8.5625 -7.984375 C 8.414062 -7.953125 8.300781 -7.875 8.21875 -7.75 C 8.101562 -7.601562 8.023438 -7.363281 7.984375 -7.03125 C 7.953125 -6.707031 7.9375 -6.238281 7.9375 -5.625 Z M 7.9375 -3.40625 "/></g></g></g><g fill="#000000" fill-opacity="1"><g transform="translate(228.475644, 233.606601)"><g><path d="M 0.421875 0 L 0.421875 -0.421875 C 0.703125 -0.421875 0.925781 -0.4375 1.09375 -0.46875 C 1.269531 -0.507812 1.40625 -0.570312 1.5 -0.65625 C 1.59375 -0.75 1.65625 -0.875 1.6875 -1.03125 C 1.71875 -1.195312 1.734375 -1.410156 1.734375 -1.671875 L 1.734375 -6.796875 C 1.734375 -7.054688 1.71875 -7.265625 1.6875 -7.421875 C 1.664062 -7.578125 1.617188 -7.703125 1.546875 -7.796875 C 1.472656 -7.890625 1.359375 -7.953125 1.203125 -7.984375 C 1.054688 -8.015625 0.867188 -8.035156 0.640625 -8.046875 L 0.640625 -8.46875 L 4.5 -8.46875 C 5.15625 -8.46875 5.765625 -8.359375 6.328125 -8.140625 C 6.890625 -7.921875 7.375 -7.613281 7.78125 -7.21875 C 8.1875 -6.832031 8.503906 -6.367188 8.734375 -5.828125 C 8.960938 -5.296875 9.078125 -4.71875 9.078125 -4.09375 C 9.078125 -3.488281 8.96875 -2.9375 8.75 -2.4375 C 8.539062 -1.9375 8.242188 -1.503906 7.859375 -1.140625 C 7.472656 -0.785156 7.007812 -0.503906 6.46875 -0.296875 C 5.9375 -0.0976562 5.351562 0 4.71875 0 Z M 3.078125 -7.9375 C 2.953125 -7.9375 2.890625 -7.875 2.890625 -7.75 L 2.890625 -1.796875 C 2.890625 -0.953125 3.4375 -0.53125 4.53125 -0.53125 C 5.53125 -0.53125 6.296875 -0.828125 6.828125 -1.421875 C 7.367188 -2.023438 7.640625 -2.90625 7.640625 -4.0625 C 7.640625 -4.675781 7.566406 -5.21875 7.421875 -5.6875 C 7.273438 -6.164062 7.0625 -6.570312 6.78125 -6.90625 C 6.507812 -7.238281 6.179688 -7.492188 5.796875 -7.671875 C 5.410156 -7.847656 4.972656 -7.9375 4.484375 -7.9375 Z M 3.078125 -7.9375 "/></g></g></g><g fill="#000000" fill-opacity="1"><g transform="translate(242.592789, 233.606601)"><g><path d="M 2.859375 -4.65625 C 3.253906 -4.65625 3.582031 -4.675781 3.84375 -4.71875 C 4.113281 -4.769531 4.328125 -4.847656 4.484375 -4.953125 C 4.648438 -5.054688 4.765625 -5.1875 4.828125 -5.34375 C 4.898438 -5.507812 4.9375 -5.703125 4.9375 -5.921875 L 5.328125 -5.921875 L 5.328125 -2.921875 L 4.9375 -2.921875 C 4.9375 -3.140625 4.90625 -3.328125 4.84375 -3.484375 C 4.78125 -3.648438 4.671875 -3.785156 4.515625 -3.890625 C 4.359375 -3.992188 4.144531 -4.070312 3.875 -4.125 C 3.601562 -4.1875 3.265625 -4.21875 2.859375 -4.21875 L 2.859375 -1.734375 C 2.859375 -1.484375 2.882812 -1.28125 2.9375 -1.125 C 3 -0.96875 3.101562 -0.835938 3.25 -0.734375 C 3.394531 -0.640625 3.582031 -0.570312 3.8125 -0.53125 C 4.050781 -0.488281 4.34375 -0.46875 4.6875 -0.46875 C 5.070312 -0.46875 5.398438 -0.492188 5.671875 -0.546875 C 5.941406 -0.609375 6.171875 -0.703125 6.359375 -0.828125 C 6.546875 -0.960938 6.691406 -1.140625 6.796875 -1.359375 C 6.910156 -1.578125 7.003906 -1.847656 7.078125 -2.171875 L 7.484375 -2.171875 L 7.328125 0 L 0.5 0 L 0.5 -0.421875 C 0.75 -0.421875 0.953125 -0.4375 1.109375 -0.46875 C 1.273438 -0.507812 1.398438 -0.570312 1.484375 -0.65625 C 1.566406 -0.75 1.625 -0.875 1.65625 -1.03125 C 1.6875 -1.195312 1.703125 -1.410156 1.703125 -1.671875 L 1.703125 -6.796875 C 1.703125 -7.054688 1.6875 -7.265625 1.65625 -7.421875 C 1.632812 -7.578125 1.582031 -7.703125 1.5 -7.796875 C 1.425781 -7.890625 1.316406 -7.953125 1.171875 -7.984375 C 1.023438 -8.015625 0.835938 -8.035156 0.609375 -8.046875 L 0.609375 -8.46875 L 6.96875 -8.46875 L 7.0625 -6.53125 L 6.671875 -6.53125 C 6.628906 -6.820312 6.554688 -7.0625 6.453125 -7.25 C 6.359375 -7.4375 6.222656 -7.582031 6.046875 -7.6875 C 5.878906 -7.800781 5.660156 -7.878906 5.390625 -7.921875 C 5.128906 -7.972656 4.8125 -8 4.4375 -8 L 3.046875 -8 C 2.921875 -8 2.859375 -7.9375 2.859375 -7.8125 Z M 2.859375 -4.65625 "/></g></g></g><g fill="#000000" fill-opacity="1"><g transform="translate(254.973155, 233.606601)"><g><path d="M 7.640625 0.109375 L 2.40625 -6.78125 L 2.359375 -6.78125 L 2.359375 -2.078125 C 2.359375 -1.710938 2.367188 -1.421875 2.390625 -1.203125 C 2.421875 -0.992188 2.472656 -0.828125 2.546875 -0.703125 C 2.628906 -0.585938 2.742188 -0.507812 2.890625 -0.46875 C 3.035156 -0.4375 3.222656 -0.421875 3.453125 -0.421875 L 3.453125 0 L 0.5 0 L 0.5 -0.421875 C 0.75 -0.421875 0.953125 -0.441406 1.109375 -0.484375 C 1.273438 -0.523438 1.398438 -0.597656 1.484375 -0.703125 C 1.566406 -0.816406 1.625 -0.972656 1.65625 -1.171875 C 1.6875 -1.378906 1.703125 -1.65625 1.703125 -2 L 1.703125 -6.46875 C 1.703125 -6.78125 1.6875 -7.035156 1.65625 -7.234375 C 1.632812 -7.429688 1.582031 -7.585938 1.5 -7.703125 C 1.425781 -7.828125 1.316406 -7.910156 1.171875 -7.953125 C 1.023438 -8.003906 0.835938 -8.035156 0.609375 -8.046875 L 0.609375 -8.46875 L 2.78125 -8.46875 L 7.59375 -2.0625 L 7.640625 -2.0625 L 7.640625 -6.390625 C 7.640625 -6.753906 7.625 -7.039062 7.59375 -7.25 C 7.570312 -7.46875 7.519531 -7.632812 7.4375 -7.75 C 7.363281 -7.875 7.253906 -7.953125 7.109375 -7.984375 C 6.960938 -8.023438 6.773438 -8.046875 6.546875 -8.046875 L 6.546875 -8.46875 L 9.5 -8.46875 L 9.5 -8.046875 C 9.25 -8.046875 9.039062 -8.023438 8.875 -7.984375 C 8.71875 -7.941406 8.59375 -7.863281 8.5 -7.75 C 8.414062 -7.644531 8.359375 -7.488281 8.328125 -7.28125 C 8.304688 -7.070312 8.296875 -6.800781 8.296875 -6.46875 L 8.296875 0.109375 Z M 7.640625 0.109375 "/></g></g></g><g fill="#000000" fill-opacity="1"><g transform="translate(269.297989, 233.606601)"><g/></g></g><g fill="#000000" fill-opacity="1"><g transform="translate(163.419086, 248.6066)"><g><path d="M 6.046875 -1.96875 L 8.90625 -8.46875 L 11.375 -8.46875 L 11.375 -8.046875 C 11.132812 -8.046875 10.941406 -8.019531 10.796875 -7.96875 C 10.660156 -7.914062 10.550781 -7.828125 10.46875 -7.703125 C 10.394531 -7.585938 10.34375 -7.421875 10.3125 -7.203125 C 10.289062 -6.992188 10.28125 -6.722656 10.28125 -6.390625 L 10.28125 -2.078125 C 10.28125 -1.710938 10.296875 -1.421875 10.328125 -1.203125 C 10.359375 -0.992188 10.414062 -0.828125 10.5 -0.703125 C 10.582031 -0.585938 10.703125 -0.507812 10.859375 -0.46875 C 11.015625 -0.4375 11.222656 -0.421875 11.484375 -0.421875 L 11.484375 0 L 7.921875 0 L 7.921875 -0.421875 C 8.179688 -0.421875 8.390625 -0.441406 8.546875 -0.484375 C 8.703125 -0.523438 8.820312 -0.597656 8.90625 -0.703125 C 9 -0.816406 9.054688 -0.972656 9.078125 -1.171875 C 9.109375 -1.378906 9.125 -1.65625 9.125 -2 L 9.125 -7.109375 L 9.015625 -7.109375 L 5.8125 0.109375 L 5.5625 0.109375 L 2.40625 -7.109375 L 2.359375 -7.109375 L 2.359375 -2.078125 C 2.359375 -1.710938 2.375 -1.421875 2.40625 -1.203125 C 2.4375 -0.992188 2.492188 -0.828125 2.578125 -0.703125 C 2.660156 -0.585938 2.78125 -0.507812 2.9375 -0.46875 C 3.09375 -0.4375 3.300781 -0.421875 3.5625 -0.421875 L 3.5625 0 L 0.5 0 L 0.5 -0.421875 C 0.75 -0.421875 0.953125 -0.441406 1.109375 -0.484375 C 1.273438 -0.523438 1.398438 -0.597656 1.484375 -0.703125 C 1.566406 -0.816406 1.625 -0.972656 1.65625 -1.171875 C 1.6875 -1.378906 1.703125 -1.65625 1.703125 -2 L 1.703125 -6.46875 C 1.703125 -6.78125 1.6875 -7.035156 1.65625 -7.234375 C 1.632812 -7.429688 1.582031 -7.585938 1.5 -7.703125 C 1.425781 -7.828125 1.316406 -7.910156 1.171875 -7.953125 C 1.023438 -8.003906 0.835938 -8.035156 0.609375 -8.046875 L 0.609375 -8.46875 L 3.234375 -8.46875 L 6 -1.96875 Z M 6.046875 -1.96875 "/></g></g></g><g fill="#000000" fill-opacity="1"><g transform="translate(179.800624, 248.6066)"><g><path d="M 2.859375 -2.078125 C 2.859375 -1.710938 2.875 -1.421875 2.90625 -1.203125 C 2.9375 -0.992188 2.992188 -0.828125 3.078125 -0.703125 C 3.160156 -0.585938 3.28125 -0.507812 3.4375 -0.46875 C 3.59375 -0.4375 3.800781 -0.421875 4.0625 -0.421875 L 4.0625 0 L 0.5 0 L 0.5 -0.421875 C 0.75 -0.421875 0.953125 -0.441406 1.109375 -0.484375 C 1.273438 -0.523438 1.398438 -0.597656 1.484375 -0.703125 C 1.566406 -0.816406 1.625 -0.972656 1.65625 -1.171875 C 1.6875 -1.378906 1.703125 -1.65625 1.703125 -2 L 1.703125 -6.46875 C 1.703125 -6.78125 1.6875 -7.035156 1.65625 -7.234375 C 1.632812 -7.429688 1.582031 -7.585938 1.5 -7.703125 C 1.425781 -7.828125 1.316406 -7.910156 1.171875 -7.953125 C 1.023438 -8.003906 0.835938 -8.035156 0.609375 -8.046875 L 0.609375 -8.46875 L 3.953125 -8.46875 L 3.953125 -8.046875 C 3.710938 -8.046875 3.519531 -8.019531 3.375 -7.96875 C 3.238281 -7.914062 3.128906 -7.828125 3.046875 -7.703125 C 2.972656 -7.585938 2.921875 -7.421875 2.890625 -7.203125 C 2.867188 -6.992188 2.859375 -6.722656 2.859375 -6.390625 Z M 2.859375 -2.078125 "/></g></g></g><g fill="#000000" fill-opacity="1"><g transform="translate(188.762409, 248.6066)"><g><path d="M 7.640625 0.109375 L 2.40625 -6.78125 L 2.359375 -6.78125 L 2.359375 -2.078125 C 2.359375 -1.710938 2.367188 -1.421875 2.390625 -1.203125 C 2.421875 -0.992188 2.472656 -0.828125 2.546875 -0.703125 C 2.628906 -0.585938 2.742188 -0.507812 2.890625 -0.46875 C 3.035156 -0.4375 3.222656 -0.421875 3.453125 -0.421875 L 3.453125 0 L 0.5 0 L 0.5 -0.421875 C 0.75 -0.421875 0.953125 -0.441406 1.109375 -0.484375 C 1.273438 -0.523438 1.398438 -0.597656 1.484375 -0.703125 C 1.566406 -0.816406 1.625 -0.972656 1.65625 -1.171875 C 1.6875 -1.378906 1.703125 -1.65625 1.703125 -2 L 1.703125 -6.46875 C 1.703125 -6.78125 1.6875 -7.035156 1.65625 -7.234375 C 1.632812 -7.429688 1.582031 -7.585938 1.5 -7.703125 C 1.425781 -7.828125 1.316406 -7.910156 1.171875 -7.953125 C 1.023438 -8.003906 0.835938 -8.035156 0.609375 -8.046875 L 0.609375 -8.46875 L 2.78125 -8.46875 L 7.59375 -2.0625 L 7.640625 -2.0625 L 7.640625 -6.390625 C 7.640625 -6.753906 7.625 -7.039062 7.59375 -7.25 C 7.570312 -7.46875 7.519531 -7.632812 7.4375 -7.75 C 7.363281 -7.875 7.253906 -7.953125 7.109375 -7.984375 C 6.960938 -8.023438 6.773438 -8.046875 6.546875 -8.046875 L 6.546875 -8.46875 L 9.5 -8.46875 L 9.5 -8.046875 C 9.25 -8.046875 9.039062 -8.023438 8.875 -7.984375 C 8.71875 -7.941406 8.59375 -7.863281 8.5 -7.75 C 8.414062 -7.644531 8.359375 -7.488281 8.328125 -7.28125 C 8.304688 -7.070312 8.296875 -6.800781 8.296875 -6.46875 L 8.296875 0.109375 Z M 7.640625 0.109375 "/></g></g></g><g fill="#000000" fill-opacity="1"><g transform="translate(203.077407, 248.6066)"><g><path d="M 5.375 -3.0625 L 2.4375 -3.0625 C 2.3125 -2.769531 2.203125 -2.503906 2.109375 -2.265625 C 2.023438 -2.035156 1.953125 -1.835938 1.890625 -1.671875 C 1.835938 -1.503906 1.800781 -1.359375 1.78125 -1.234375 C 1.757812 -1.117188 1.75 -1.023438 1.75 -0.953125 C 1.75 -0.753906 1.8125 -0.613281 1.9375 -0.53125 C 2.070312 -0.457031 2.296875 -0.421875 2.609375 -0.421875 L 2.609375 0 L -0.0625 0 L -0.0625 -0.421875 C 0.101562 -0.441406 0.242188 -0.46875 0.359375 -0.5 C 0.484375 -0.539062 0.59375 -0.59375 0.6875 -0.65625 C 0.78125 -0.726562 0.859375 -0.816406 0.921875 -0.921875 C 0.992188 -1.023438 1.066406 -1.15625 1.140625 -1.3125 L 4 -8.46875 L 4.46875 -8.46875 L 6.96875 -2.265625 C 7.132812 -1.859375 7.28125 -1.53125 7.40625 -1.28125 C 7.53125 -1.03125 7.648438 -0.84375 7.765625 -0.71875 C 7.878906 -0.59375 8.003906 -0.507812 8.140625 -0.46875 C 8.273438 -0.4375 8.441406 -0.421875 8.640625 -0.421875 L 8.640625 0 L 5.046875 0 L 5.046875 -0.421875 C 5.429688 -0.421875 5.695312 -0.457031 5.84375 -0.53125 C 6 -0.613281 6.078125 -0.738281 6.078125 -0.90625 C 6.078125 -0.976562 6.070312 -1.046875 6.0625 -1.109375 C 6.050781 -1.171875 6.035156 -1.238281 6.015625 -1.3125 C 6.003906 -1.382812 5.976562 -1.460938 5.9375 -1.546875 C 5.90625 -1.640625 5.863281 -1.75 5.8125 -1.875 Z M 2.65625 -3.625 L 5.15625 -3.625 L 3.9375 -6.859375 Z M 2.65625 -10.015625 C 2.65625 -10.160156 2.707031 -10.285156 2.8125 -10.390625 C 2.925781 -10.503906 3.0625 -10.5625 3.21875 -10.5625 C 3.375 -10.5625 3.503906 -10.503906 3.609375 -10.390625 C 3.710938 -10.285156 3.765625 -10.160156 3.765625 -10.015625 C 3.765625 -9.847656 3.710938 -9.710938 3.609375 -9.609375 C 3.503906 -9.503906 3.375 -9.453125 3.21875 -9.453125 C 3.0625 -9.453125 2.925781 -9.503906 2.8125 -9.609375 C 2.707031 -9.710938 2.65625 -9.847656 2.65625 -10.015625 Z M 4.65625 -10.015625 C 4.65625 -10.160156 4.707031 -10.285156 4.8125 -10.390625 C 4.925781 -10.503906 5.0625 -10.5625 5.21875 -10.5625 C 5.375 -10.5625 5.503906 -10.503906 5.609375 -10.390625 C 5.722656 -10.285156 5.78125 -10.160156 5.78125 -10.015625 C 5.78125 -9.847656 5.722656 -9.710938 5.609375 -9.609375 C 5.503906 -9.503906 5.375 -9.453125 5.21875 -9.453125 C 5.0625 -9.453125 4.925781 -9.503906 4.8125 -9.609375 C 4.707031 -9.710938 4.65625 -9.847656 4.65625 -10.015625 Z M 4.65625 -10.015625 "/></g></g></g></svg>